# xmcd
#
# Track frame offsets: 
#        150
#        15376
#        31084
#        46885
#        63197
#        77732
#        86846
#        101762
#        112109
#        124305
#        138012
#        150481
#        171898
#        184816
#
# Disc length: 2681 seconds
#
# Revision: 0
# Processed by: cddbd v1.5.2PL0 Copyright (c) Steve Scherf et al.
# Submitted via: ExactAudioCopy v1.3
#
DISCID=ac0a770e
DTITLE=Fiona Boyes - Gimme Some... Sweet Jelly Roll
DYEAR=2003
DGENRE=Country Blues
TTITLE0=The Preacher
TTITLE1=Devil Says
TTITLE2=A'int No Jelly Roll in Heaven
TTITLE3=In Love Again
TTITLE4=Drink to Your Health
TTITLE5=Harmonica Rag
TTITLE6=When Did You Leave Heaven
TTITLE7=How'd You Want Your Business Done
TTITLE8=Mess with Your Mama
TTITLE9=It's You
TTITLE10=Catfish Fiesta
TTITLE11=Down Home Gal
TTITLE12=Young Rider Blues
TTITLE13=Light at the End of the Road
EXTD=
EXTT0=
EXTT1=
EXTT2=
EXTT3=
EXTT4=
EXTT5=
EXTT6=
EXTT7=
EXTT8=
EXTT9=
EXTT10=
EXTT11=
EXTT12=
EXTT13=
PLAYORDER=
